# AST/ASF file generated using VICON BodyLanguage
# -----------------------------------------------
:version 1.10
:name VICON
:units
  mass 1.0
  length 0.45
  angle deg
:documentation
   .ast/.asf automatically generated from VICON data using
   VICON BodyBuilder and BodyLanguage model FoxedUp or BRILLIANT.MOD
:root
   order TX TY TZ RX RY RZ
   axis XYZ
   position 0 0 0  
   orientation 0 0 0 
:bonedata
  begin
     id 1 
     name lhipjoint
     direction 0.78388 -0.462562 0.414208 
     length 3.01181 
     axis 0 0 0  XYZ
  end
  begin
     id 2 
     name lfemur
     direction 0.34202 -0.939693 0  
     length 6.04673  
     axis 0 0 20  XYZ
    dof rx ry rz
    limits (-160.0 20.0)
           (-70.0 70.0)
           (-60.0 70.0)
  end
  begin
     id 3 
     name ltibia
     direction 0.34202 -0.939693 0   
     length 7.211   
     axis 0 0 20   XYZ
    dof rx
    limits (-10.0 170.0)
  end
  begin
     id 4 
     name lfoot
     direction 0.121887 -0.334882 0.934344   
     length 2.13567   
     axis -90 7.62852e-016 20   XYZ
    dof rx rz
    limits (-45.0 90.0)
           (-70.0 20.0)
  end
  begin
     id 5 
     name ltoes
     direction 1.53555e-011 -4.2179e-011 1   
     length 1.05957   
     axis -90 7.62852e-016 20   XYZ
    dof rx
    limits (-90.0 20.0)
  end
  begin
     id 6 
     name rhipjoint
     direction -0.769387 -0.475875 0.426129   
     length 2.92756  
     axis 0 0 0  XYZ 
  end
  begin
     id 7 
     name rfemur
     direction -0.34202 -0.939693 0   
     length 6.35468   
     axis 0 0 -20   XYZ
    dof rx ry rz
    limits (-160.0 20.0)
           (-70.0 70.0)
           (-70.0 60.0)
  end
  begin
     id 8 
     name rtibia
     direction -0.34202 -0.939693 0   
     length 7.37886   
     axis 0 0 -20   XYZ
    dof rx
    limits (-10.0 170.0)
 end
 begin
     id 9 
     name rfoot
     direction -0.101763 -0.279592 0.954711   
     length 2.21478  
     axis -90 -7.62852e-016 -20   XYZ
    dof rx rz
    limits (-45.0 90.0)
           (-20.0 70.0)
  end
  begin
     id 10 
     name rtoes
     direction -1.53494e-011 -4.21851e-011 1   
     length 1.10506   
     axis -90 -7.62852e-016 -20   XYZ
    dof rx
    limits (-90.0 20.0)
  end
  begin
     id 11 
     name lowerback
     direction 0.00747405 0.999267 0.0375481   
     length 2.13259   
     axis 0 0 0   XYZ
    dof rx ry rz
    limits (-20.0 45.0)
           (-30.0 30.0)
           (-30.0 30.0)
  end
  begin
     id 12 
     name upperback
     direction 0.00661626 0.996177 0.0871029   
     length 2.10528   
     axis 0 0 0   XYZ
    dof rx ry rz
    limits (-20.0 45.0)
           (-30.0 30.0)
           (-30.0 30.0)
  end
  begin
     id 13 
     name thorax
     direction 0.00320659 0.997679 0.0680167   
     length 2.11338   
     axis 0 0 0   XYZ
    dof rx ry rz
    limits (-20.0 45.0)
           (-30.0 30.0)
           (-30.0 30.0)
  end
  begin
     id 14 
     name lowerneck
     direction 0.0374841 0.973033 0.227602   
     length 1.42765   
     axis 0 0 0   XYZ
    dof rx ry rz
    limits (-20.0 45.0)
           (-30.0 30.0)
           (-30.0 30.0)
  end
  begin
     id 15 
     name upperneck
     direction 0.00481585 0.989155 -0.146795   
     length 1.47593   
     axis 0 0 0   XYZ
    dof rx ry rz
    limits (-20.0 45.0)
           (-30.0 30.0)
           (-30.0 30.0)
  end
  begin
     id 16
     name head
     direction -0.00292522 0.997206 -0.0746423  
     length 1.48116  
     axis 0 0 0   XYZ
    dof rx ry rz
    limits (-20.0 45.0)
           (-30.0 30.0)
           (-30.0 30.0)
  end
  begin
     id 17 
     name lclavicle
     direction 0.951444 0.305606 0.0368784  
     length 3.01855  
     axis 0 0 0   XYZ
    dof ry rz
    limits (-20.0 10.0)
           (0.0 20.0)
  end
  begin
     id 18 
     name lhumerus
     direction 1 -4.48977e-011 2.61664e-027   
     length 5.52731   
     axis 180 -30 -90   XYZ
    dof rx ry rz
    limits (-60.0 90.0)
           (-90.0 90.0)
           (-90.0 90.0)
  end
  begin
     id 19
     name lradius
     direction 1 -4.48944e-011 8.22157e-027   
     length 3.11059   
     axis 180 -30 -90   XYZ
    dof rx
    limits (-10.0 170.0)
  end
  begin
     id 20
     name lwrist
     direction 1 -4.48976e-011 1.5779e-026   
     length 1.5553   
     axis -1.15221e-014 90 90   XYZ
    dof ry
    limits (-180.0 0.0)
 end
  begin
     id 21 
     name lhand
     direction 1 -4.49025e-011 3.1558e-026   
     length 0.419626   
     axis -2.01367e-014 90 90   XYZ
    dof rx rz
    limits (-90.0 90.0)
           (-45.0 45.0)
  end
  begin
     id 22 
     name lfingers
     direction 1 -4.4904e-011 6.31161e-026   
     length 0.338313   
     axis -4.02734e-014 90 90   XYZ
    dof rx
    limits (0.0 90.0)
  end
  begin
     id 23
     name lthumb
     direction 0.707107 -6.35004e-011 0.707107   
     length 0.485752   
     axis -90 45 2.85299e-015   XYZ
    dof rx rz
    limits (-45.0 45.0)
           (-45.0 45.0)
  end
  begin
     id 24 
     name rclavicle
     direction -0.968876 0.223791 0.105816   
     length 3.04177  
     axis 0 0 0   XYZ 
    dof ry rz
    limits (-10.0 20.0)
           (-20.0 0.0)
  end
  begin
     id 25 
     name rhumerus
     direction -1 -4.48962e-011 -1.01384e-027  
     length 5.25396   
     axis 180 30 90   XYZ
    dof rx ry rz
    limits (-90.0 60.0)
           (-90.0 90.0)
           (-90.0 90.0)
  end
  begin
     id 26 
     name rradius
     direction -1 -4.48955e-011 8.88542e-027   
     length 3.10567   
     axis 180 30 90   XYZ
    dof rx
    limits (-10.0 170.0)
  end
  begin
     id 27 
     name rwrist
     direction -1 -4.48994e-011 1.5779e-026   
     length 1.55283   
     axis -1.15221e-014 -90 -90   XYZ
    dof ry
    limits (-180.0 0.0)
  end
  begin
     id 28
     name rhand
     direction -1 -4.48891e-011 3.1558e-026   
     length 0.498676   
     axis -2.01367e-014 -90 -90   XYZ
    dof rx rz
    limits (-90.0 90.0)
           (-45.0 45.0)
  end
  begin
     id 29
     name rfingers
     direction -1 -4.48972e-011 6.31161e-026   
     length 0.402045   
     axis -4.02734e-014 -90 -90   XYZ
    dof rx
    limits (0.0 90.0)
  end
  begin
     id 30
     name rthumb
     direction -0.707107 -6.34849e-011 0.707107   
     length 0.577259   
     axis -90 -45 -2.85299e-015   XYZ
    dof rx rz
    limits (-45.0 45.0)
           (-45.0 45.0)
  end
:hierarchy
  begin
    root lhipjoint rhipjoint lowerback
    lhipjoint lfemur
    lfemur ltibia
    ltibia lfoot
    lfoot ltoes
    rhipjoint rfemur
    rfemur rtibia
    rtibia rfoot
    rfoot rtoes
    lowerback upperback
    upperback thorax
    thorax lowerneck lclavicle rclavicle
    lowerneck upperneck
    upperneck head
    lclavicle lhumerus
    lhumerus lradius
    lradius lwrist
    lwrist lhand lthumb
    lhand lfingers
    rclavicle rhumerus
    rhumerus rradius
    rradius rwrist
    rwrist rhand rthumb
    rhand rfingers
  end

#!OML:ASF H:\Pregnant\Project 1\Capture day 1\Session 1\femalepreg.ASF
:FULLY-SPECIFIED
:DEGREES
809
root 5.47747 11.8085 22.8182 -61.3469 2.09227 -179.778
lowerback 18.6019 0.554782 -2.4029
upperback 1.27609 0.404819 0.756506
thorax -9.08145 0.347466 2.07933
lowerneck -27.1289 0.917943 -0.335653
upperneck 33.6376 1.84937 2.19219
head 16.7019 1.13892 1.46218
rclavicle -5.04416e-015 3.65267e-015
rhumerus 102.38 -50.6518 -39.5696
rradius 25.5694
rwrist -3.6614
rhand -38.5298 -13.9568
rfingers 7.12502
rthumb -11.5502 -43.6185
lclavicle -5.04416e-015 3.65267e-015
lhumerus 93.7056 51.0357 32.8601
lradius 27.7466
lwrist 34.6569
lhand -49.1254 -14.9376
lfingers 7.12502
lthumb -21.7494 13.8604
rfemur -104.585 -2.76311 7.00463
rtibia 44.1588
rfoot -52.3174 -1.6567
rtoes 17.0702
lfemur -99.0667 2.18896 -28.1181
ltibia 30.5185
lfoot -41.9788 -6.99546
ltoes -20.9116
810
root 5.47682 11.8092 22.8174 -61.3554 2.10884 -179.77
lowerback 18.5505 0.566738 -2.43061
upperback 1.33169 0.419106 0.764034
thorax -8.9928 0.354421 2.09938
lowerneck -27.1571 0.910089 -0.346529
upperneck 33.6034 1.83835 2.1819
head 16.6913 1.131 1.45649
rclavicle 5.01931e-015 6.63444e-015
rhumerus 102.499 -50.721 -39.6452
rradius 25.5509
rwrist -3.61288
rhand -38.5156 -13.956
rfingers 7.12502
rthumb -11.5365 -43.6185
lclavicle 5.01931e-015 6.63444e-015
lhumerus 93.8602 51.0872 33.0297
lradius 27.7321
lwrist 34.6116
lhand -49.119 -14.924
lfingers 7.12502
lthumb -21.7433 13.8748
rfemur -104.562 -2.73839 6.82269
rtibia 44.1522
rfoot -52.3419 -1.81465
rtoes 17.095
lfemur -99.0474 2.17572 -28.0558
ltibia 30.5143
lfoot -41.9612 -6.94215
ltoes -20.8657
811
root 5.47616 11.81 22.8166 -61.3646 2.12707 -179.763
lowerback 18.4919 0.579779 -2.46251
upperback 1.39229 0.434547 0.773258
thorax -8.89493 0.361974 2.12339
lowerneck -27.1877 0.902484 -0.354713
upperneck 33.566 1.82766 2.16661
head 16.6799 1.12276 1.44813
rclavicle 9.7156e-015 -2.33572e-015
rhumerus 102.645 -50.7866 -39.7516
rradius 25.5321
rwrist -3.54252
rhand -38.4988 -13.9506
rfingers 7.12502
rthumb -11.5203 -43.614
lclavicle 9.7156e-015 -2.33572e-015
lhumerus 94.0568 51.1323 33.249
lradius 27.7096
lwrist 34.5388
lhand -49.1087 -14.9136
lfingers 7.12502
lthumb -21.7334 13.8864
rfemur -104.539 -2.71509 6.63903
rtibia 44.144
rfoot -52.3639 -1.972
rtoes 17.1085
lfemur -99.0267 2.16154 -27.9952
ltibia 30.5105
lfoot -41.9432 -6.88357
ltoes -20.8259
812
root 5.47557 11.8107 22.8158 -61.3749 2.14609 -179.756
lowerback 18.4346 0.59173 -2.49516
upperback 1.45326 0.448489 0.782761
thorax -8.79738 0.368816 2.14854
lowerneck -27.2167 0.894841 -0.362523
upperneck 33.5282 1.81618 2.1529
head 16.6679 1.11452 1.44022
rclavicle -7.28049e-015 -3.37934e-015
rhumerus 102.801 -50.8463 -39.8713
rradius 25.516
rwrist -3.46503
rhand -38.4833 -13.9458
rfingers 7.12502
rthumb -11.5054 -43.61
lclavicle -7.28049e-015 -3.37934e-015
lhumerus 94.2806 51.1688 33.4998
lradius 27.681
lwrist 34.4426
lhand -49.0962 -14.9004
lfingers 7.12502
lthumb -21.7214 13.9009
rfemur -104.515 -2.69391 6.45545
rtibia 44.1378
rfoot -52.3859 -2.12619
rtoes 17.1147
lfemur -99.0037 2.14463 -27.9348
ltibia 30.5057
lfoot -41.9269 -6.80733
ltoes -20.8201
813
root 5.47514 11.811 22.8151 -61.3823 2.16082 -179.752
lowerback 18.3905 0.601356 -2.52129
upperback 1.50348 0.459877 0.791031
thorax -8.71887 0.374388 2.16934
lowerneck -27.2438 0.887585 -0.373751
upperneck 33.4989 1.80472 2.14924
head 16.6596 1.10747 1.43758
rclavicle 4.07509e-015 1.11816e-016
rhumerus 102.946 -50.8916 -39.9881
rradius 25.5031
rwrist -3.39149
rhand -38.4676 -13.9396
rfingers 7.12502
rthumb -11.4903 -43.6047
lclavicle 4.07509e-015 1.11816e-016
lhumerus 94.4888 51.1964 33.7325
lradius 27.6531
lwrist 34.349
lhand -49.0839 -14.8896
lfingers 7.12502
lthumb -21.7096 13.9131
rfemur -104.496 -2.67198 6.27688
rtibia 44.135
rfoot -52.4084 -2.27758
rtoes 17.1149
lfemur -98.9853 2.12764 -27.87
ltibia 30.5022
lfoot -41.9126 -6.707
ltoes -20.8694
814
root 5.47491 11.8108 22.8145 -61.3905 2.16375 -179.754
lowerback 18.3949 0.602561 -2.5231
upperback 1.52352 0.462263 0.793708
thorax -8.6995 0.375457 2.1726
lowerneck -27.2568 0.883297 -0.37946
upperneck 33.4931 1.79718 2.15339
head 16.6597 1.10414 1.43878
rclavicle -8.39865e-015 6.70898e-016
rhumerus 103.035 -50.9071 -40.0714
rradius 25.4961
rwrist -3.34417
rhand -38.456 -13.9334
rfingers 7.12502
rthumb -11.479 -43.5991
lclavicle -8.39865e-015 6.70898e-016
lhumerus 94.6236 51.2027 33.881
lradius 27.6333
lwrist 34.2766
lhand -49.0748 -14.8831
lfingers 7.12502
lthumb -21.7009 13.9206
rfemur -104.476 -2.64769 6.11263
rtibia 44.1356
rfoot -52.4343 -2.42529
rtoes 17.1179
lfemur -98.97 2.11187 -27.7912
ltibia 30.5019
lfoot -41.9009 -6.59342
ltoes -20.9518
815
root 5.47485 11.8103 22.8141 -61.3895 2.15429 -179.759
lowerback 18.443 0.595197 -2.49935
upperback 1.50501 0.455082 0.788023
thorax -8.74571 0.371703 2.15478
lowerneck -27.2558 0.88293 -0.381194
upperneck 33.518 1.79467 2.17127
head 16.6718 1.10573 1.44715
rclavicle -3.65267e-015 2.11209e-016
rhumerus 103.071 -50.8816 -40.1285
rradius 25.4912
rwrist -3.31503
rhand -38.4464 -13.9289
rfingers 7.12502
rthumb -11.4698 -43.5952
lclavicle -3.65267e-015 2.11209e-016
lhumerus 94.6605 51.1843 33.9169
lradius 27.6254
lwrist 34.2362
lhand -49.0684 -14.8753
lfingers 7.12502
lthumb -21.6947 13.9291
rfemur -104.466 -2.62015 5.96179
rtibia 44.1363
rfoot -52.4601 -2.57016
rtoes 17.1239
lfemur -98.9715 2.10252 -27.7
ltibia 30.508
lfoot -41.8845 -6.51332
ltoes -20.9579
816
root 5.47492 11.8096 22.814 -61.3801 2.13867 -179.765
lowerback 18.5283 0.580331 -2.45743
upperback 1.45116 0.438531 0.773567
thorax -8.85058 0.363341 2.1196
lowerneck -27.2373 0.88587 -0.374836
upperneck 33.5694 1.79677 2.19522
head 16.6932 1.11143 1.45836
rclavicle -1.26725e-014 -8.12532e-015
rhumerus 103.052 -50.8191 -40.1558
rradius 25.4874
rwrist -3.3048
rhand -38.4419 -13.927
rfingers 7.12502
rthumb -11.4655 -43.5934
lclavicle -1.26725e-014 -8.12532e-015
lhumerus 94.594 51.1458 33.8342
lradius 27.6304
lwrist 34.2332
lhand -49.0654 -14.8638
lfingers 7.12502
lthumb -21.6918 13.941
rfemur -104.465 -2.59173 5.81773
rtibia 44.1366
rfoot -52.484 -2.7159
rtoes 17.1239
lfemur -98.9873 2.09581 -27.6029
ltibia 30.5196
lfoot -41.8667 -6.44153
ltoes -20.951
817
root 5.47511 11.8089 22.814 -61.365 2.12135 -179.77
lowerback 18.5988 0.56778 -2.42017
upperback 1.4022 0.424937 0.762049
thorax -8.94226 0.356381 2.08952
lowerneck -27.2218 0.888352 -0.372063
upperneck 33.6164 1.79753 2.22284
head 16.7131 1.11665 1.47146
rclavicle 1.5381e-014 4.57205e-015
rhumerus 103.037 -50.7656 -40.1787
rradius 25.4834
rwrist -3.29871
rhand -38.4409 -13.9281
rfingers 7.12502
rthumb -11.4645 -43.5947
lclavicle 1.5381e-014 4.57205e-015
lhumerus 94.5158 51.122 33.7386
lradius 27.639
lwrist 34.2469
lhand -49.0615 -14.8604
lfingers 7.12502
lthumb -21.6881 13.9448
rfemur -104.471 -2.56192 5.67498
rtibia 44.1355
rfoot -52.5054 -2.86122
rtoes 17.1216
lfemur -99.0124 2.09199 -27.5052
ltibia 30.5339
lfoot -41.8472 -6.37765
ltoes -20.9309
818
root 5.47522 11.8083 22.8138 -61.3521 2.10673 -179.773
lowerback 18.6378 0.561406 -2.39584
upperback 1.37655 0.41931 0.758421
thorax -8.99153 0.353315 2.07326
lowerneck -27.2155 0.88733 -0.371364
upperneck 33.6465 1.79383 2.24131
head 16.7267 1.11822 1.47953
rclavicle 8.4732e-015 -7.70291e-016
rhumerus 103.036 -50.7428 -40.1933
rradius 25.4808
rwrist -3.29746
rhand -38.4425 -13.9346
rfingers 7.12502
rthumb -11.466 -43.6011
lclavicle 8.4732e-015 -7.70291e-016
lhumerus 94.4875 51.1157 33.7025
lradius 27.6419
lwrist 34.248
lhand -49.0563 -14.8589
lfingers 7.12502
lthumb -21.6831 13.9469
rfemur -104.475 -2.53304 5.52909
rtibia 44.1348
rfoot -52.5263 -3.00932
rtoes 17.112
lfemur -99.0327 2.08631 -27.4104
ltibia 30.5469
lfoot -41.8284 -6.29744
ltoes -20.9539
819
root 5.47523 11.8079 22.8135 -61.3433 2.10055 -179.773
lowerback 18.6321 0.563994 -2.39402
upperback 1.38384 0.424025 0.763379
thorax -8.98063 0.355466 2.07636
lowerneck -27.2224 0.881769 -0.374989
upperneck 33.652 1.78334 2.25107
head 16.7312 1.11492 1.48246
rclavicle 1.15047e-014 1.33683e-014
rhumerus 103.067 -50.7582 -40.2134
rradius 25.4787
rwrist -3.29224
rhand -38.443 -13.9406
rfingers 7.12502
rthumb -11.4665 -43.607
lclavicle 1.15047e-014 1.33683e-014
lhumerus 94.5412 51.1289 33.7626
lradius 27.6344
lwrist 34.2232
lhand -49.0489 -14.8626
lfingers 7.12502
lthumb -21.676 13.944
rfemur -104.474 -2.50622 5.37347
rtibia 44.1344
rfoot -52.5456 -3.15951
rtoes 17.0938
lfemur -99.044 2.07603 -27.3251
ltibia 30.5561
lfoot -41.814 -6.17617
ltoes -21.0762
820
root 5.47517 11.8077 22.8127 -61.3421 2.09661 -179.777
lowerback 18.6223 0.5678 -2.39498
upperback 1.40186 0.430654 0.77122
thorax -8.95583 0.358553 2.08364
lowerneck -27.235 0.874408 -0.380338
upperneck 33.6519 1.77002 2.25953
head 16.7342 1.10998 1.48442
rclavicle -1.77415e-014 -1.75427e-014
rhumerus 103.098 -50.7884 -40.2241
rradius 25.4781
rwrist -3.29269
rhand -38.4449 -13.9466
rfingers 7.12502
rthumb -11.4683 -43.6129
lclavicle -1.77415e-014 -1.75427e-014
lhumerus 94.6085 51.1504 33.8386
lradius 27.6276
lwrist 34.199
lhand -49.0437 -14.8588
lfingers 7.12502
lthumb -21.671 13.9484
rfemur -104.464 -2.48183 5.21716
rtibia 44.1349
rfoot -52.5663 -3.30839
rtoes 17.0807
lfemur -99.0429 2.06169 -27.2396
ltibia 30.5604
lfoot -41.7976 -6.05452
ltoes -21.2011
821
root 5.47503 11.8076 22.8119 -61.3398 2.09548 -179.78
lowerback 18.6102 0.570476 -2.39649
upperback 1.41859 0.435398 0.776506
thorax -8.93104 0.360692 2.08896
lowerneck -27.2461 0.867179 -0.39015
upperneck 33.6496 1.75472 2.27883
head 16.7356 1.1054 1.49146
rclavicle -9.19379e-015 -1.44119e-015
rhumerus 103.121 -50.819 -40.2291
rradius 25.4788
rwrist -3.29709
rhand -38.4444 -13.952
rfingers 7.12502
rthumb -11.4679 -43.6184
lclavicle -9.19379e-015 -1.44119e-015
lhumerus 94.6519 51.1746 33.8863
lradius 27.6285
lwrist 34.1926
lhand -49.0417 -14.8534
lfingers 7.12502
lthumb -21.6691 13.954
rfemur -104.455 -2.45887 5.05759
rtibia 44.1352
rfoot -52.5854 -3.45677
rtoes 17.0702
lfemur -99.0404 2.0472 -27.1569
ltibia 30.5611
lfoot -41.777 -5.95076
ltoes -21.2874
